<?xml version="1.0" encoding="UTF-8" standalone="no"?>
<svg width="176px" height="46px" viewBox="0 0 176 46" version="1.1" xmlns="http://www.w3.org/2000/svg" xmlns:xlink="http://www.w3.org/1999/xlink">
    <!-- Generator: Sketch 50.2 (55047) - http://www.bohemiancoding.com/sketch -->
    <title>Group 93</title>
    <desc>Created with Sketch.</desc>
    <defs></defs>
    <g id="Website" stroke="none" stroke-width="1" fill="none" fill-rule="evenodd">
        <g id="Group-93">
            <g id="Group-9" fill="#8147FF">
                <path d="M3.19435704,16.3904264 C5.46035762,6.97810235 13.715074,0 23.7502195,0 C33.7853649,0 42.0400814,6.97810235 44.3060819,16.3904264 C46.1795435,16.3904264 47.500439,16.3904264 47.500439,21.0965885 C47.500439,25.8027505 46.1795435,25.8027505 44.3060819,25.8027505 C43.496796,29.0483795 42.0400814,31.9694456 39.935938,34.5659488 L39.935938,38.947548 C39.935938,38.947548 36.6987943,45.438806 23.7502195,45.438806 C10.8016447,45.438806 7.56450102,38.947548 7.56450102,38.947548 L7.56450102,34.5659488 C5.46035762,32.1317271 4.00364296,29.0483795 3.19435704,25.8027505 C1.32089552,25.8027505 1.3500312e-13,25.8027505 1.13686838e-13,21.0965885 C9.23705556e-14,16.3904264 1.32089552,16.3904264 3.19435704,16.3904264 Z M23.8962139,34.3858842 C40.203204,34.3858842 40.6835821,25.4982897 40.6835821,20.9989492 C40.6835821,16.4996086 39.0539885,7.13283582 23.8962139,7.13283582 C8.73843939,7.13283582 6.86865672,16.1317908 6.86865672,20.999549 C6.86865672,24.905701 7.58922384,31.1627333 16.0154712,33.4824017 C16.8422521,33.7100068 12.9203218,37.8908516 13.9173095,38.0367029 C14.4646053,38.1167678 16.8506511,37.3811276 18.7850678,36.3329875 C20.3076916,35.5079723 21.9461264,34.3426051 21.9461264,34.3426051 C21.9461264,34.3426051 23.2184013,34.3858842 23.8962139,34.3858842 Z" id="Combined-Shape"></path>
            </g>
            <g id="Group" transform="translate(61.000000, 12.000000)" fill="#092131">
                <path d="M0,1.05563858 C0,0.769800955 0.098374921,0.527991272 0.295812699,0.330897461 C0.494282383,0.129676032 0.736092066,0.035084762 1.02158572,0.035084762 C1.30776731,0.035084762 1.54992096,0.129676032 1.74907858,0.330897461 C1.95064398,0.527991272 2.04729905,0.769800955 2.04729905,1.05563858 L2.04729905,7.98866273 C2.77204017,7.17345796 3.64159192,6.52886145 4.65629827,6.05624907 C5.66790891,5.58466859 6.76929526,5.34870637 7.95564177,5.34870637 C9.05702813,5.34870637 10.0934045,5.55818304 11.0575475,5.97851224 C12.0251302,6.3950578 12.8709481,6.95950971 13.5864021,7.67496368 C14.3001362,8.39213749 14.865964,9.23348384 15.2831975,10.2014105 C15.7038707,11.1652096 15.9102516,12.2036497 15.9102516,13.30538 L15.9102516,20.370488 C15.9102516,20.6542618 15.8118767,20.8967594 15.613751,21.0976369 C15.4170012,21.2902591 15.1707199,21.3941375 14.8869461,21.3941375 C14.6024843,21.3941375 14.3603307,21.2902591 14.1604851,21.0976369 C13.9637353,20.8967594 13.8629526,20.6542618 13.8629526,20.370488 L13.8629526,13.30538 C13.8629526,12.493271 13.7105747,11.7245019 13.4040989,11.0100799 C13.0934956,10.293594 12.6704146,9.66929162 12.1317604,9.12616575 C11.5931061,8.5892313 10.9633002,8.16683828 10.2512859,7.85967463 C9.53273622,7.54803939 8.76706289,7.39428558 7.95564177,7.39428558 C7.16141907,7.39428558 6.41535193,7.54322384 5.71056097,7.84178828 C5.00680192,8.13725701 4.39385049,8.54004384 3.86241954,9.04602114 C3.33442827,9.55440622 2.90446795,10.152567 2.57288255,10.846351 C2.24817652,11.5356634 2.0641535,12.2841383 2.04729905,13.0732015 L2.04729905,20.370488 C2.04729905,20.6542618 1.95064398,20.8967594 1.74907858,21.0976369 C1.54992096,21.2902591 1.30776731,21.3941375 1.02158572,21.3941375 C0.736092066,21.3941375 0.494282383,21.2902591 0.295812699,21.0976369 C0.098374921,20.8967594 0,20.6542618 0,20.370488 L0,1.05563858" id="Fill-42"></path>
                <path d="M20.0832745,13.403755 C20.0832745,14.2144881 20.2356525,14.9829132 20.543504,15.6966474 C20.8516996,16.4131332 21.2775323,17.0398434 21.8127469,17.5781537 C22.3548409,18.1195597 22.9812071,18.5450485 23.6932214,18.8515242 C24.4100512,19.1583439 25.1760685,19.3155374 25.9905853,19.3155374 C26.806478,19.3155374 27.576623,19.1583439 28.301708,18.8515242 C29.028169,18.5450485 29.6586628,18.1195597 30.2007568,17.5781537 C30.7431947,17.0398434 31.1611161,16.4131332 31.4730953,15.6966474 C31.7819788,14.9829132 31.9343568,14.2144881 31.9343568,13.403755 C31.9343568,12.5885502 31.7819788,11.821157 31.4730953,11.09504 C31.1611161,10.3678911 30.7431947,9.73120591 30.2007568,9.19392749 C29.6586628,8.65699305 29.028169,8.23356812 28.301708,7.92640447 C27.576623,7.61339336 26.806478,7.46101542 25.9905853,7.46101542 C25.1760685,7.46101542 24.4100512,7.61339336 23.6932214,7.92640447 C22.9812071,8.23356812 22.3548409,8.65699305 21.8127469,9.19392749 C21.2775323,9.73120591 20.8516996,10.3678911 20.543504,11.09504 C20.2356525,11.821157 20.0832745,12.5885502 20.0832745,13.403755 Z M26.0583471,5.38138335 C27.1146736,5.38138335 28.1207807,5.59739542 29.0790763,6.02735574 C30.035308,6.4535324 30.8769984,7.03036717 31.6020834,7.76129971 C32.3302642,8.48432098 32.9060671,9.3325467 33.3380912,10.3001294 C33.7656438,11.2677121 33.9809679,12.3064962 33.9809679,13.403755 C33.9809679,14.4820954 33.7697714,15.4995535 33.3535698,16.4561293 C32.9332406,17.4137369 32.3694766,18.2533634 31.6519588,18.9849839 C30.9375368,19.709725 30.0941266,20.2827761 29.1282638,20.6982898 C28.1589612,21.1158672 27.1146736,21.3267198 25.9905853,21.3267198 C24.8916068,21.3267198 23.8617658,21.128938 22.9014064,20.7309667 C21.9499902,20.3391869 21.107268,19.7909015 20.381495,19.0830148 C19.6543461,18.3754721 19.0785432,17.5416931 18.6647494,16.5699828 C18.2457961,15.6020561 18.0325358,14.5484813 18.0325358,13.403755 C18.0325358,12.3064962 18.236509,11.2728716 18.6461751,10.3166399 C19.0534336,9.35972019 19.6137578,8.5231894 20.3298998,7.80842336 C21.041914,7.09331336 21.8932355,6.51957431 22.8718252,6.09202177 C23.8504148,5.66446923 24.9132768,5.42713113 26.0583471,5.38138335 Z" id="Fill-43"></path>
                <path d="M36.027579,6.33727113 C36.027579,6.05212145 36.1259539,5.81271954 36.3257995,5.61218605 C36.5194536,5.41612415 36.7612633,5.31740526 37.0481328,5.31740526 C37.3370662,5.31740526 37.5764681,5.41612415 37.7766576,5.61218605 C37.9730635,5.81271954 38.0765979,6.05212145 38.0765979,6.33727113 L38.0765979,13.403755 C38.0765979,14.2144881 38.2265681,14.9829132 38.5385473,15.6966474 C38.845023,16.4131332 39.2656962,17.0398434 39.8077901,17.5781537 C40.3447246,18.1195597 40.9734986,18.5450485 41.6882646,18.8515242 C42.4050944,19.1583439 43.1711117,19.3155374 43.9839087,19.3155374 C44.7956738,19.3155374 45.5644429,19.1583439 46.2761132,18.8515242 C46.992943,18.5450485 47.6196532,18.1195597 48.1603713,17.5781537 C48.6969618,17.0398434 49.1203867,16.4131332 49.4292702,15.6966474 C49.7388416,14.9829132 49.8953472,14.2144881 49.8953472,13.403755 L49.8953472,6.33727113 C49.8953472,6.05212145 49.9902824,5.81271954 50.1928797,5.61218605 C50.3879097,5.41612415 50.6324711,5.31740526 50.9186527,5.31740526 C51.2031145,5.31740526 51.4428603,5.41612415 51.6451137,5.61218605 C51.8384238,5.81271954 51.9402384,6.05212145 51.9402384,6.33727113 L51.9402384,13.403755 C51.9402384,14.5054853 51.7290419,15.5391099 51.3145602,16.5070366 C50.8918232,17.4766831 50.3277153,18.3163096 49.6146691,19.0293558 C48.8937116,19.7492813 48.0544291,20.316829 47.0844386,20.7309667 C46.115136,21.1516399 45.0821994,21.3614606 43.9839087,21.3614606 C42.8794267,21.3614606 41.8475219,21.1516399 40.8792513,20.7309667 C39.9109806,20.316829 39.0699782,19.7492813 38.3548682,19.0293558 C37.6394143,18.3163096 37.0732425,17.4766831 36.656353,16.5070366 C36.2356798,15.5391099 36.027579,14.5054853 36.027579,13.403755 L36.027579,6.33727113" id="Fill-44"></path>
                <path d="M54.0917599,20.3391869 C54.0917599,20.0495656 54.188415,19.8080999 54.3851648,19.6110061 C54.5867302,19.4149442 54.8261321,19.3155374 55.1140335,19.3155374 L63.4752139,19.3155374 C64.112931,19.3155374 64.6639682,19.0830148 65.1248856,18.6210655 C65.5837393,18.1580842 65.8193575,17.6042953 65.8193575,16.9689859 C65.8193575,16.3281731 65.5837393,15.7778239 65.1248856,15.3179383 C64.6639682,14.854957 64.112931,14.6262181 63.4752139,14.6262181 L58.381388,14.6262181 C57.7443588,14.6262181 57.1444781,14.5054853 56.5817461,14.2636756 C56.01867,14.0173943 55.531611,13.6899366 55.1140335,13.2720151 C54.6940483,12.8523739 54.3648707,12.3653148 54.123061,11.8025827 C53.8836591,11.2412265 53.7601745,10.6396261 53.7601745,10.0043167 C53.7601745,9.36487972 53.8836591,8.76465511 54.123061,8.18610051 C54.3648707,7.61339336 54.6940483,7.11739114 55.1140335,6.70462923 C55.531611,6.28292415 56.01867,5.95581034 56.5817461,5.71365669 C57.1444781,5.46771938 57.7443588,5.34870637 58.381388,5.34870637 L66.3483807,5.34870637 C66.6321545,5.34870637 66.8770599,5.44776923 67.0731218,5.64451907 C67.2709036,5.84436462 67.3692785,6.08789415 67.3692785,6.3723559 C67.3692785,6.65956939 67.2709036,6.89656352 67.0731218,7.09812891 C66.8770599,7.29556669 66.6321545,7.39428558 66.3483807,7.39428558 L58.381388,7.39428558 C57.6790048,7.41595558 57.0719008,7.68046717 56.5655796,8.18610051 C56.0575385,8.69345368 55.8091934,9.30227749 55.8091934,10.0043167 C55.8091934,10.7084197 56.0575385,11.312084 56.5655796,11.821157 C57.0719008,12.3247266 57.6790048,12.5754794 58.381388,12.5754794 L63.4752139,12.5754794 C64.0678712,12.5754794 64.6395464,12.6962123 65.175105,12.9246072 C65.7161671,13.1557539 66.182244,13.4708288 66.5757437,13.8667362 C66.9747469,14.2636756 67.288446,14.7300966 67.5161529,15.2715026 C67.7521152,15.808781 67.8683764,16.3728889 67.8683764,16.9689859 C67.8683764,17.5599234 67.7521152,18.1285029 67.5161529,18.6705969 C67.288446,19.2095951 66.9747469,19.6784239 66.5757437,20.0715796 C66.182244,20.4709267 65.7161671,20.7846258 65.175105,21.0150845 C64.6395464,21.2458872 64.0678712,21.3614606 63.4752139,21.3614606 L55.1140335,21.3614606 C54.8261321,21.3614606 54.5867302,21.258614 54.3851648,21.063928 C54.188415,20.8695859 54.0917599,20.6233047 54.0917599,20.3391869" id="Fill-45"></path>
                <path d="M83.4205571,13.403755 C83.4205571,14.2144881 83.5722471,14.9829132 83.8811306,15.6966474 C84.190702,16.4131332 84.613439,17.0398434 85.1527813,17.5781537 C85.6904036,18.1195597 86.3202095,18.5450485 87.0322238,18.8515242 C87.7490536,19.1583439 88.5112873,19.3155374 89.326836,19.3155374 C90.1423848,19.3155374 90.9118417,19.1583439 91.6400225,18.8515242 C92.3657956,18.5450485 92.9952575,18.1195597 93.5397592,17.5781537 C94.0766937,17.0398434 94.5025264,16.4131332 94.8090021,15.6966474 C95.1185735,14.9829132 95.2709514,14.2144881 95.2709514,13.403755 C95.2709514,12.5885502 95.1185735,11.821157 94.8090021,11.09504 C94.5025264,10.3678911 94.0766937,9.73120591 93.5397592,9.19392749 C92.9952575,8.65699305 92.3657956,8.23356812 91.6400225,7.92640447 C90.9118417,7.61339336 90.1423848,7.46101542 89.326836,7.46101542 C88.5112873,7.46101542 87.7490536,7.61339336 87.0322238,7.92640447 C86.3202095,8.23356812 85.6904036,8.65699305 85.1527813,9.19392749 C84.613439,9.73120591 84.190702,10.3678911 83.8811306,11.09504 C83.5722471,11.821157 83.4205571,12.5885502 83.4205571,13.403755 Z M89.3952857,5.38138335 C90.4523002,5.38138335 91.4597832,5.59739542 92.4163589,6.02735574 C93.3712148,6.4535324 94.2163448,7.03036717 94.9428057,7.76129971 C95.6668589,8.48432098 96.2450695,9.3325467 96.673998,10.3001294 C97.1018945,11.2677121 97.3192824,12.3064962 97.3192824,13.403755 C97.3192824,14.4820954 97.107054,15.4995535 96.6925722,16.4561293 C96.2691473,17.4137369 95.7046954,18.2533634 94.9878656,18.9849839 C94.2758513,19.709725 93.4317532,20.2827761 92.4665783,20.6982898 C91.4996835,21.1158672 90.4523002,21.3267198 89.326836,21.3267198 C88.2282014,21.3267198 87.2007682,21.128938 86.2421287,20.7309667 C85.285897,20.3391869 84.4414549,19.7909015 83.7198095,19.0830148 C82.9909408,18.3754721 82.4165138,17.5416931 81.9996243,16.5699828 C81.579639,15.6020561 81.3708503,14.5484813 81.3708503,13.403755 C81.3708503,12.3064962 81.5758554,11.2728716 81.9827698,10.3166399 C82.3876204,9.35972019 82.9520724,8.5231894 83.6689022,7.80842336 C84.3809165,7.09331336 85.2301741,6.51957431 86.2097957,6.09202177 C87.1887294,5.66446923 88.2509033,5.42713113 89.3952857,5.38138335 Z" id="Fill-46"></path>
                <path d="M99.089687,13.2720151 C99.089687,12.1720046 99.2940042,11.1376921 99.7160532,10.1707973 C100.131567,9.19805511 100.700146,8.35670876 101.414568,7.63953495 C102.133806,6.92786463 102.971025,6.3592851 103.942391,5.94273954 C104.90791,5.52585002 105.942223,5.31740526 107.044985,5.31740526 C108.146371,5.31740526 109.180684,5.52585002 110.148266,5.94273954 C111.116881,6.3592851 111.957883,6.92786463 112.674025,7.63953495 C113.385008,8.35670876 113.951867,9.19805511 114.375292,10.1707973 C114.787366,11.1376921 115.000283,12.1720046 115.000283,13.2720151 L115.000283,20.3391869 C115.000283,20.6233047 114.8995,20.8695859 114.70275,21.063928 C114.504968,21.258614 114.264191,21.3614606 113.979385,21.3614606 C113.692515,21.3614606 113.447954,21.258614 113.251204,21.063928 C113.054454,20.8695859 112.953672,20.6233047 112.953672,20.3391869 L112.953672,13.2720151 C112.953672,12.4568104 112.799574,11.6952646 112.490002,10.9784348 C112.181119,10.2647007 111.758382,9.6348948 111.222479,9.09555257 C110.680385,8.55861813 110.051611,8.12968971 109.337189,7.823214 C108.625175,7.51673828 107.85675,7.36229653 107.044985,7.36229653 C106.228404,7.36229653 105.463419,7.51673828 104.750717,7.823214 C104.034575,8.12968971 103.407177,8.55861813 102.866114,9.09555257 C102.3309,9.6348948 101.902315,10.2647007 101.596184,10.9784348 C101.28902,11.6952646 101.136298,12.4568104 101.136298,13.2720151 L101.136298,20.3391869 C101.136298,20.6233047 101.03414,20.8695859 100.834294,21.063928 C100.63892,21.258614 100.397798,21.3614606 100.111961,21.3614606 C99.8254351,21.3614606 99.5825935,21.258614 99.3834359,21.063928 C99.1884059,20.8695859 99.089687,20.6233047 99.089687,20.3391869 L99.089687,13.2720151" id="Fill-47"></path>
                <path d="M79.4315573,19.3155374 L78.0436454,19.3155374 C77.2301604,19.3155374 76.4624233,19.1583439 75.7455934,18.8515242 C75.0311714,18.5450485 74.4048052,18.1195597 73.8692466,17.5781537 C73.3278406,17.0398434 72.9051036,16.4131332 72.5951882,15.6966474 C72.2863047,14.9829132 72.1322069,14.2144881 72.1322069,13.403755 L72.1322069,7.29556669 L79.4315573,7.29556669 C79.781373,7.29556669 80.0637709,7.1968478 80.2732476,6.99975399 C80.4796285,6.79990844 80.583163,6.56119447 80.583163,6.27432494 C80.583163,5.98539161 80.4796285,5.74289399 80.2732476,5.54923986 C80.0637709,5.34870637 79.781373,5.24861161 79.4315573,5.24861161 L72.1322069,5.24861161 L72.1322069,1.02055381 C72.1322069,0.73918778 72.033832,0.492562541 71.8363942,0.297532541 C71.6423961,0.10250254 71.3930191,0 71.1106212,0 C70.8244396,0 70.5826299,0.10250254 70.3862241,0.297532541 C70.1856906,0.492562541 70.0873156,0.73918778 70.0873156,1.02055381 L70.0873156,13.403755 C70.0873156,14.5054853 70.2954164,15.5391099 70.7147137,16.5070366 C71.1291955,17.4766831 71.697775,18.3163096 72.4146049,19.0293558 C73.1307468,19.7492813 73.973125,20.316829 74.9403638,20.7309667 C75.9093223,21.1516399 76.942259,21.3614606 78.0436454,21.3614606 L79.4315573,21.3614606 C79.781373,21.3614606 80.0637709,21.258614 80.2732476,21.063928 C80.4796285,20.8695859 80.583163,20.6233047 80.583163,20.3391869 C80.583163,20.0495656 80.4796285,19.8080999 80.2732476,19.6110061 C80.0637709,19.4149442 79.781373,19.3155374 79.4315573,19.3155374" id="Fill-48"></path>
            </g>
        </g>
    </g>
</svg>